# xmcd CD database file
# Copyright (C) 1993-1998 Ti Kan
#
# Track frame offsets:
# 150
# 21982
# 36675
# 56165
# 69675
# 84872
# 100392
# 112570
# 126950
# 141740
# 155890
# 177387
# 192322
# 205650
# 218697
# 232027
# 248150
# 261737
# 279947
#
# Disc length: 3907 seconds
# Revision: 0
# Processed by: cddbd v1.4b41PL1 Copyright (c) Steve Scherf et al.
# Submitted via: CDSpectrumPro v3.3.331
#
DISCID=2a0f4113
DTITLE=Various Artist - 19 Hot Country Requests Vol I
DYEAR=1900
DGENRE=
TTITLE0=Merle Haggard - Going Where The Lonely Go
TTITLE1=Mickey Gilley - Talk To Me
TTITLE2=Willie Nelson - Last Thing I Needed, First Thing This Morning
TTITLE3=Ricky Skaggs - I Wouldn't Change You If I Could
TTITLE4=George Jones - Shine On
TTITLE5=B. J. Thomas - Whatever Happened To Old Fashioned Love
TTITLE6=Merle Haggard - You Take Me For Granted
TTITLE7=David Allan Coe - The Ride
TTITLE8=Mickey Gilley - Fool For Your Love
TTITLE9=Ricky Skaggs - Highway Blues
TTITLE10=Merle Haggard and Willie Nelson - Pancho And Lefty
TTITLE11=George Jones - I Always Get Lucky With You
TTITLE12=Janie Fricke - He's A Heartache
TTITLE13=Ronnie McDowell - You're Gonna Ruin My Bad Reputation
TTITLE14=B. J. Thomas - New Looks From An Old Lover
TTITLE15=Merle Haggard - What Am I Gonna Do
TTITLE16=Charly McClain - Paradise Tonight
TTITLE17=Janie Fricke - Tell Me A Lie
TTITLE18=Larry Gatlin and The Gatlin Brothers - Houston
EXTD=
EXTT0=
EXTT1=
EXTT2=
EXTT3=
EXTT4=
EXTT5=
EXTT6=
EXTT7=
EXTT8=
EXTT9=
EXTT10=
EXTT11=
EXTT12=
EXTT13=
EXTT14=
EXTT15=
EXTT16=
EXTT17=
EXTT18=
PLAYORDER=
